HIERARCHY
ROOT pelvis
{
  OFFSET 0 100 0
  CHANNELS 6 Xposition Yposition Zposition Zrotation Xrotation Yrotation
  JOINT pelvis_right_femur
  {
    OFFSET -10.78128 -3.44521 -0.5502486
    CHANNELS 3 Zrotation Xrotation Yrotation
    JOINT right_femur_tibia
    {
      OFFSET -0.8047443 -44.0398 -0.1307829
      CHANNELS 3 Zrotation Xrotation Yrotation
      JOINT right_tibia_foot
      {
        OFFSET 3.006224 -47.83518 -5
        CHANNELS 3 Zrotation Xrotation Yrotation
        End Site
        {
          OFFSET 0 -5 15
        }
      }
    }
  }
  JOINT pelvis_left_femur
  {
    OFFSET 10.78128 -3.44521 -0.5502486
    CHANNELS 3 Zrotation Xrotation Yrotation
    JOINT left_femur_tibia
    {
      OFFSET 0.8047443 -44.0398 -0.1307829
      CHANNELS 3 Zrotation Xrotation Yrotation
      JOINT left_tibia_foot
      {
        OFFSET -4.370144 -48.10324 -4.275266
        CHANNELS 3 Zrotation Xrotation Yrotation
        End Site
        {
          OFFSET 0 -5 15
        }
      }
    }
  }
  JOINT pelvis_spine1
  {
    OFFSET 0 6.468898 -3.129235
    CHANNELS 3 Zrotation Xrotation Yrotation
    JOINT spine1
    {
      OFFSET 0 23.15396 4.99043
      CHANNELS 3 Zrotation Xrotation Yrotation
      JOINT spine2
      {
        OFFSET 0 20.79997 -5.064912
        CHANNELS 3 Zrotation Xrotation Yrotation
        JOINT neck
        {
          OFFSET 0 14.38658 9.616178
          CHANNELS 3 Zrotation Xrotation Yrotation
          End Site
          {
            OFFSET 0 20 0
          }
        }
      }
      JOINT right_manubrium
      {
        OFFSET -5.722621 16.35077 3.967754
        CHANNELS 3 Zrotation Xrotation Yrotation
        JOINT right_clavicle
        {
          OFFSET -13.16364 1.694482 -4.693211
          CHANNELS 3 Zrotation Xrotation Yrotation
          JOINT right_humerus
          {
            OFFSET -28.5034 -0.3100689 -2.792744
            CHANNELS 3 Zrotation Xrotation Yrotation
            JOINT right_radius
            {
              OFFSET -25.15693 0.02248979 -1.271978
              CHANNELS 3 Zrotation Xrotation Yrotation
              End Site
              {
                OFFSET -15 0 0
              }
            }
          }
        }
      }
      JOINT left_manubrium
      {
        OFFSET 5.722621 16.35077 3.967754
        CHANNELS 3 Zrotation Xrotation Yrotation
        JOINT left_clavicle
        {
          OFFSET 13.16364 1.694482 -4.693211
          CHANNELS 3 Zrotation Xrotation Yrotation
          JOINT left_humerus
          {
            OFFSET 29.39168 -1.063119 -2.237045
            CHANNELS 3 Zrotation Xrotation Yrotation
            JOINT left_radius
            {
              OFFSET 24.59957 -0.9528479 0.9047498
              CHANNELS 3 Zrotation Xrotation Yrotation
              End Site
              {
                OFFSET 15 -0 -0
              }
            }
          }
        }
      }
    }
  }
}
MOTION
Frames: 9
Frame Time: 0.0416666666667
-1344.873 96.84461 2026.894 -1.592721 0.6706082 -87.93846 6.288881 -27.36344 -0.9716817 -0 10.15739 -0 -11.95138 3.802215 -0.6236577 -4.923969 13.93465 -10.75279 -0 24.6796 -0 6.580517 -15.59612 16.08503 -1.922509 -1.853648 5.490126 1.099257 10.97813 -7.354545 1.554161 19.16059 7.32133 4.391661 -23.58313 9.759934 4.291954 -18.51803 11.2054 89.78657 38.26586 -22.95807 -0 0 15.80068 -6.551252 7.78016 -0.5132148 10.21757 -22.7777 -3.35266 -83.92597 10.3578 10.41842 0 0 -33.36597 23.79417 6.427378 -17.73557
-1350.642 96.97341 2027.006 -1.312846 1.134393 -87.96421 7.057442 -25.56899 -0.4419814 -0 11.36517 -0 -12.48344 3.378555 -0.7258979 -4.376807 12.58838 -10.24657 -0 30.46906 -0 5.621098 -13.03994 14.5368 -1.813461 -2.040167 5.624632 1.290797 11.175 -7.593619 1.420385 18.993 7.243735 4.402221 -24.01052 9.56865 4.28134 -18.95043 11.24496 90.03768 37.65476 -23.58574 -0 0 16.09159 -5.901726 7.033005 -0.7859512 10.16318 -23.07 -3.41424 -84.44629 10.65052 11.33551 0 0 -32.93471 23.56969 6.217573 -17.33045
-1356.516 97.52024 2027.086 -1.570487 1.459778 -88.07245 7.601113 -22.60025 -0.06654941 -0 12.65039 -0 -13.2857 2.730755 -0.7629358 -3.762965 10.40016 -9.73198 -0 37.19429 -0 4.427214 -10.21676 13.27054 -1.725812 -2.191731 5.726949 1.452811 11.33921 -7.759232 1.296041 18.91703 7.152071 4.410091 -24.29773 9.338855 4.285602 -19.32571 11.28641 90.09801 37.04281 -23.89766 -0 0 16.34108 -5.488163 6.413379 -0.8636623 10.04885 -23.28288 -3.481527 -85.04507 11.01139 12.3066 0 0 -32.0882 23.23785 6.201216 -16.78908
-1362.329 98.41245 2027.123 -2.335503 1.603621 -88.32687 7.945717 -18.72474 0.1774705 -0 13.5034 -0 -14.08705 1.662499 -0.7894023 -3.112868 7.265021 -9.126394 -0 44.00887 -0 3.287768 -7.486547 12.54428 -1.659948 -2.306346 5.802409 1.574717 11.47559 -7.842725 1.181405 18.93197 7.049808 4.422141 -24.42634 9.066593 4.30472 -19.64636 11.33228 89.95711 36.43199 -23.87606 -0 0 16.56692 -5.343966 5.947874 -0.7451796 9.87954 -23.41608 -3.561528 -85.72018 11.40803 13.33029 0 0 -30.82888 22.80559 6.374555 -16.13073
-1367.928 99.49572 2027.109 -3.438686 1.571305 -88.76822 8.119444 -14.31631 0.3140845 -0 13.50457 -0 -14.58673 0.07461657 -0.8387122 -2.430654 3.198826 -8.347636 -0 49.74278 -0 2.393548 -5.225797 12.44407 -1.611826 -2.388708 5.861179 1.653388 11.59469 -7.846369 1.073757 19.02751 6.937635 4.443798 -24.39771 8.74645 4.336259 -19.92928 11.38526 89.62435 35.80471 -23.53776 -0 0 16.797 -5.469703 5.633589 -0.4459088 9.661012 -23.47971 -3.661278 -86.47785 11.81519 14.42542 0 0 -29.17328 22.2757 6.718353 -15.36585
-1373.24 100.554 2027.057 -4.65034 1.40821 -89.39998 8.138612 -9.744583 0.3472604 -0 12.51413 -0 -14.58873 -1.976205 -0.9073397 -1.698729 -1.565747 -7.354761 -0 53.17061 -0 1.894707 -3.689672 12.91584 -1.575503 -2.44641 5.91431 1.69084 11.70704 -7.779758 0.970683 19.18674 6.815038 4.477047 -24.22864 8.378297 4.375694 -20.19559 11.44677 89.12737 35.1419 -22.92559 -0 0 17.05964 -5.838155 5.45191 0.006372933 9.400405 -23.48687 -3.784191 -87.31997 12.21336 15.60925 0 0 -27.16807 21.65208 7.201781 -14.503
-1378.291 101.3661 2026.999 -5.757946 1.184293 -90.18701 8.017333 -5.274843 0.2558927 -0 10.77671 -0 -14.12339 -4.280173 -0.9490777 -0.8950926 -6.595207 -6.18032 -0 53.38285 -0 1.94471 -2.89569 13.81065 -1.545413 -2.486774 5.970636 1.691931 11.81914 -7.656458 0.8721653 19.38913 6.682232 4.519855 -23.94675 7.971648 4.417276 -20.46195 11.51622 88.50865 34.43796 -22.10007 -0 0 17.37482 -6.401768 5.380655 0.5752211 9.107157 -23.44881 -3.927911 -88.23376 12.58636 16.87956 0 0 -24.89956 20.94578 7.785368 -13.55717
-1383.186 101.7724 2026.984 -6.580307 0.9794619 -91.06625 7.772333 -1.031575 0.04015764 -0 8.836046 -0 -13.41898 -6.624658 -0.911922 -0.0146783 -11.40593 -4.962574 -0 50.07907 -0 2.573512 -2.628574 14.91102 -1.517579 -2.515402 6.035257 1.663076 11.93249 -7.491948 0.7805891 19.61323 6.541315 4.567205 -23.58612 7.545064 4.455292 -20.73641 11.59113 87.81942 33.70551 -21.13192 -0 0 17.74923 -7.100567 5.399147 1.218885 8.793366 -23.37409 -4.084771 -89.18952 12.92091 18.20893 0 0 -22.48806 20.17804 8.424536 -12.55417
-1388.042 101.7053 2027.057 -6.970691 0.8584212 -91.96479 7.40597 2.961302 -0.2099163 -0 7.294107 -0 -12.71595 -8.993645 -0.8060885 0.9073083 -15.61286 -3.938968 -0 43.62869 -0 3.532621 -2.589869 15.9775 -1.489732 -2.536215 6.109609 1.611499 12.04525 -7.302149 0.699116 19.83941 6.39619 4.613387 -23.18206 7.12075 4.485311 -21.01899 11.66796 87.11082 32.96921 -20.09356 -0 0 18.17659 -7.871725 5.487951 1.894729 8.472887 -23.27062 -4.244834 -90.14771 13.20759 19.5524 0 0 -20.06543 19.37846 9.075281 -11.52898
